<?xml version="1.0" encoding="utf-8"?>
<!-- Generator: Adobe Illustrator 17.0.0, SVG Export Plug-In . SVG Version: 6.00 Build 0)  -->
<!DOCTYPE svg PUBLIC "-//W3C//DTD SVG 1.1//EN" "http://www.w3.org/Graphics/SVG/1.1/DTD/svg11.dtd">
<svg version="1.1" id="Layer_1" xmlns="http://www.w3.org/2000/svg" xmlns:xlink="http://www.w3.org/1999/xlink" x="0px" y="0px"
	 width="93.75px" height="93.75px" viewBox="0 0 93.75 93.75" enable-background="new 0 0 93.75 93.75" xml:space="preserve">
<g>
	<g>
		<path d="M94.5,44.25c0,2,0,4,0,6c-0.276,1.329-0.617,2.649-0.82,3.989C90.535,75.009,73.575,91.394,52.85,93.664
			c-21.397,2.344-41.465-9.763-49.042-29.694C2.574,60.728,1.759,57.328,0.75,54c0-4.5,0-9,0-13.5
			c0.467-1.531,0.979-3.05,1.395-4.595C6.258,20.64,15.728,10.055,30.24,3.999c3.298-1.376,6.834-2.181,10.26-3.249
			c4.5,0,9,0,13.5,0c1.307,0.371,2.61,0.756,3.922,1.112c19.543,5.3,31.432,17.832,35.597,37.664
			C93.849,41.1,94.173,42.675,94.5,44.25z M17.809,25.428c9.858,18.982,19.298,37.157,29.099,56.029
			C57.143,62.411,66.918,44.22,77.024,25.414c-2.062,0-3.312,0.171-4.499-0.031c-4.204-0.713-6.415,1.088-8.266,4.909
			c-4.682,9.666-9.884,19.079-14.884,28.591c-0.73,1.389-1.49,2.761-2.467,4.567c-0.792-1.375-1.327-2.196-1.76-3.069
			c-5.275-10.635-10.489-21.3-15.861-31.885c-0.631-1.244-1.989-2.692-3.227-2.933C23.67,25.099,21.126,25.428,17.809,25.428z
			 M52.714,38.061c-0.054-3.154-2.599-5.448-5.918-5.334c-3.083,0.106-5.508,2.469-5.54,5.401c-0.033,3.033,2.583,5.534,5.802,5.546
			C50.289,43.686,52.768,41.227,52.714,38.061z"/>
		<path fill="#FFFFFF" d="M0.75,54c1.009,3.328,1.824,6.728,3.057,9.971c7.577,19.93,27.646,32.037,49.042,29.694
			c20.726-2.27,37.685-18.655,40.831-39.426c0.203-1.34,0.543-2.66,0.82-3.989c0,14.75,0,29.5,0,44.25c-31.25,0-62.5,0-93.75,0
			C0.75,81,0.75,67.5,0.75,54z"/>
		<path fill="#FFFFFF" d="M94.5,44.25c-0.327-1.575-0.651-3.15-0.981-4.724C89.354,19.694,77.464,7.162,57.922,1.862
			C56.61,1.506,55.307,1.121,54,0.75c13.5,0,27,0,40.5,0C94.5,15.25,94.5,29.75,94.5,44.25z"/>
		<path fill="#FFFFFF" d="M40.5,0.75c-3.426,1.068-6.962,1.872-10.26,3.249C15.728,10.055,6.258,20.64,2.145,35.905
			C1.729,37.45,1.217,38.969,0.75,40.5c0-13.188,0-26.376,0-39.75C13.999,0.75,27.25,0.75,40.5,0.75z"/>
		<path fill="#FFFFFF" d="M17.809,25.428c3.317,0,5.861-0.329,8.25,0.136c1.238,0.241,2.596,1.689,3.227,2.933
			c5.372,10.585,10.586,21.251,15.861,31.885c0.433,0.873,0.968,1.694,1.76,3.069c0.976-1.806,1.737-3.179,2.467-4.567
			c5-9.512,10.202-18.925,14.884-28.591c1.851-3.822,4.063-5.622,8.266-4.909c1.187,0.201,2.438,0.031,4.499,0.031
			C66.918,44.22,57.143,62.411,46.908,81.457C37.107,62.585,27.668,44.41,17.809,25.428z"/>
		<path fill="#FFFFFF" d="M52.714,38.061c0.054,3.165-2.425,5.625-5.656,5.612c-3.219-0.012-5.835-2.513-5.802-5.546
			c0.032-2.931,2.457-5.295,5.54-5.401C50.115,32.613,52.66,34.907,52.714,38.061z"/>
	</g>
</g>
</svg>
