<?xml version="1.0" encoding="utf-8"?>
<!-- Generator: Adobe Illustrator 17.0.0, SVG Export Plug-In . SVG Version: 6.00 Build 0)  -->
<!DOCTYPE svg PUBLIC "-//W3C//DTD SVG 1.1//EN" "http://www.w3.org/Graphics/SVG/1.1/DTD/svg11.dtd">
<svg version="1.1" id="Layer_1" xmlns="http://www.w3.org/2000/svg" xmlns:xlink="http://www.w3.org/1999/xlink" x="0px" y="0px"
	 width="90px" height="90px" viewBox="0 0 90 90" enable-background="new 0 0 90 90" xml:space="preserve">
<g>
	<path fill="#FFFFFF" d="M40.203,70.513c-0.37-2.665-0.734-5.213-1.075-7.764c-0.342-2.557-0.646-5.118-1.001-7.673
		c-0.098-0.707-0.039-1.216,0.731-1.523c4.459-1.783,8.906-3.597,13.358-5.396c0.094-0.038,0.206-0.029,0.459-0.061
		c0.21,1.707,0.434,3.403,0.624,5.102c0.349,3.126,0.679,6.254,1.015,9.382c0.189,1.75,0.12,1.875-1.458,2.563
		c-3.788,1.651-7.575,3.301-11.367,4.942C41.111,70.247,40.706,70.347,40.203,70.513z"/>
	<path fill="#FFFFFF" d="M68.864,41.377c0.204,2.911,0.411,5.763,0.603,8.615c0.148,2.188,0.277,4.376,0.418,6.564
		c0.044,0.683-0.081,1.215-0.815,1.535c-4.307,1.875-8.599,3.785-12.897,5.679c-0.125,0.055-0.267,0.073-0.529,0.142
		c-0.187-1.388-0.4-2.739-0.546-4.097c-0.408-3.796-0.779-7.596-1.19-11.392c-0.071-0.653,0.082-1.076,0.723-1.337
		c4.512-1.843,9.016-3.704,13.526-5.553C68.343,41.457,68.556,41.443,68.864,41.377z"/>
	<path fill="#FFFFFF" d="M50.88,31.314c0.403,3.633,0.791,7.113,1.172,10.593c0.127,1.161,0.234,2.325,0.359,3.487
		c0.079,0.734-0.071,1.317-0.839,1.635c-4.348,1.795-8.69,3.606-13.037,5.404c-0.184,0.076-0.398,0.082-0.717,0.144
		c-0.305-2.112-0.609-4.17-0.898-6.23c-0.359-2.558-0.691-5.12-1.068-7.675c-0.149-1.008,0.211-1.536,1.185-1.91
		c4.291-1.65,8.553-3.376,12.826-5.073C50.152,31.573,50.447,31.473,50.88,31.314z"/>
	<path fill="#FFFFFF" d="M53.633,46.169c-0.305-2.767-0.607-5.465-0.898-8.164c-0.216-2.006-0.406-4.015-0.631-6.021
		c-0.075-0.669,0.027-1.137,0.757-1.41c4.77-1.784,9.527-3.602,14.29-5.405c0.095-0.036,0.209-0.023,0.477-0.049
		c0.083,0.909,0.179,1.81,0.245,2.713c0.267,3.673,0.518,7.347,0.791,11.02c0.056,0.754-0.143,1.288-0.9,1.598
		c-4.451,1.822-8.893,3.667-13.341,5.498C54.201,46.042,53.959,46.081,53.633,46.169z"/>
	<path fill="#FFFFFF" d="M42.869,88.78c-0.418-2.662-0.836-5.131-1.187-7.609c-0.372-2.626-0.657-5.264-1.028-7.89
		c-0.143-1.014,0.098-1.639,1.125-2.067c3.914-1.632,7.794-3.347,11.688-5.027c0.321-0.139,0.656-0.246,1.167-0.436
		c0.166,1.435,0.324,2.782,0.478,4.13c0.4,3.514,0.782,7.031,1.208,10.542c0.088,0.729-0.096,1.134-0.78,1.497
		C51.359,84.144,47.208,86.423,42.869,88.78z"/>
	<path fill="#FFFFFF" d="M69.996,59.146c0.077,0.843,0.156,1.604,0.214,2.367c0.26,3.457,0.489,6.917,0.783,10.371
		c0.098,1.15-0.334,1.829-1.346,2.362c-3.691,1.943-7.346,3.954-11.017,5.934c-0.365,0.197-0.749,0.358-1.233,0.586
		c-0.505-4.912-0.995-9.693-1.491-14.475c-0.073-0.708,0.121-1.225,0.831-1.528c4.223-1.806,8.439-3.631,12.659-5.446
		C69.546,59.252,69.713,59.225,69.996,59.146z"/>
	<path fill="#FFFFFF" d="M82.653,35.809c0,1.723,0,3.311,0,4.899c0,3.361-0.029,6.723,0.017,10.084
		c0.014,1.035-0.361,1.59-1.323,1.999c-3.373,1.432-6.709,2.95-10.202,4.498c-0.122-1.182-0.26-2.223-0.331-3.268
		c-0.272-4.023-0.515-8.048-0.786-12.071c-0.044-0.66,0.059-1.193,0.742-1.47c3.699-1.499,7.397-3.003,11.097-4.499
		C82.056,35.904,82.27,35.89,82.653,35.809z"/>
	<path fill="#FFFFFF" d="M59.231,16.701c1.34-0.855,2.419-1.543,3.499-2.232c-0.034-0.076-0.068-0.153-0.102-0.229
		c-1.528,0.626-3.073,1.214-4.578,1.892c-0.858,0.387-1.713,0.62-2.526,0.095c-2.398-1.548-4.758-3.155-7.27-4.83
		c3.107-1.121,6.047-2.219,9.021-3.215c0.456-0.153,1.12,0.062,1.603,0.288c2.208,1.03,4.393,2.113,6.572,3.203
		c0.762,0.381,1.376,0.393,2.152-0.119c0.632-0.417,1.537-0.715,2.27-0.63c3.56,0.409,7.103,0.965,10.953,1.512
		c-1.816,1.049-3.361,1.954-4.918,2.837c-1.752,0.993-3.479,2.045-5.293,2.911c-0.734,0.35-1.709,0.495-2.508,0.355
		C65.235,18.035,62.393,17.37,59.231,16.701z"/>
	<path fill="#FFFFFF" d="M81.122,13.905c0,4.67,0.017,9.057-0.026,13.444c-0.004,0.437-0.254,1.052-0.594,1.278
		c-3.146,2.093-6.336,4.118-9.665,6.26c-0.149-1.665-0.292-3.158-0.416-4.653c-0.227-2.751-0.417-5.506-0.678-8.255
		c-0.106-1.118,0.217-1.823,1.256-2.395c2.975-1.636,5.884-3.392,8.825-5.091C80.135,14.314,80.48,14.193,81.122,13.905z"/>
	<path fill="#FFFFFF" d="M72.162,72.853c-0.164-2.211-0.318-4.212-0.46-6.213c-0.165-2.329-0.314-4.659-0.481-6.987
		c-0.046-0.641,0.015-1.214,0.7-1.502c3.451-1.451,6.903-2.9,10.356-4.348c0.095-0.04,0.204-0.047,0.409-0.092
		c0.058,0.501,0.159,0.983,0.162,1.467c0.026,3.538,0.061,7.077,0.013,10.615c-0.007,0.511-0.306,1.255-0.704,1.487
		C78.92,69.157,75.627,70.938,72.162,72.853z"/>
	<path fill="#FFFFFF" d="M38.451,70.757c-1.052-0.642-2.104-1.271-3.144-1.92c-1.65-1.031-3.331-2.02-4.914-3.146
		c-0.506-0.36-0.972-1.06-1.068-1.665c-0.745-4.715-1.395-9.445-2.071-14.171c-0.024-0.17-0.003-0.346-0.003-0.667
		c0.876,0.439,1.66,0.829,2.442,1.225c1.956,0.991,3.926,1.954,5.851,3c0.408,0.222,0.872,0.723,0.931,1.147
		c0.735,5.323,1.4,10.656,2.08,15.987C38.56,70.575,38.527,70.609,38.451,70.757z"/>
	<path fill="#FFFFFF" d="M29.589,66.615c0.877,0.531,1.632,0.973,2.372,1.439c1.977,1.243,3.975,2.456,5.902,3.772
		c0.503,0.344,1.035,0.987,1.114,1.554c0.73,5.22,1.364,10.453,2.021,15.682c0.016,0.126-0.02,0.258-0.046,0.559
		c-0.701-0.553-1.306-1.019-1.898-1.501c-2.169-1.765-4.356-3.51-6.482-5.326c-0.443-0.378-0.853-0.995-0.941-1.555
		c-0.737-4.681-1.396-9.375-2.075-14.066C29.541,67.073,29.566,66.966,29.589,66.615z"/>
	<path fill="#FFFFFF" d="M24.921,32.631c2.359,1.13,4.424,2.308,6.625,3.118c2.154,0.793,3.029,2.049,3.201,4.367
		c0.3,4.04,1.003,8.049,1.552,12.185c-0.349-0.1-0.62-0.135-0.849-0.251c-2.459-1.241-4.932-2.457-7.349-3.776
		c-0.491-0.268-1.014-0.895-1.098-1.423C26.268,42.216,25.63,37.566,24.921,32.631z"/>
	<path fill="#FFFFFF" d="M15.056,28.018c2.617,1.197,5.064,2.282,7.478,3.437c0.998,0.478,1.479,1.419,1.614,2.483
		c0.527,4.174,1.023,8.352,1.526,12.529c0.017,0.137-0.01,0.28-0.022,0.537c-0.324-0.137-0.601-0.24-0.867-0.368
		c-1.974-0.951-3.937-1.922-5.92-2.854c-1.153-0.542-1.766-1.363-1.942-2.671c-0.525-3.887-1.156-7.76-1.738-11.639
		C15.123,29.059,15.109,28.637,15.056,28.018z"/>
	<path fill="#FFFFFF" d="M28.023,64.242c-2.737-1.754-5.213-3.32-7.657-4.935c-0.282-0.186-0.503-0.618-0.561-0.967
		c-0.737-4.466-1.44-8.939-2.146-13.41c-0.021-0.134,0.009-0.276,0.023-0.581c1.144,0.57,2.204,1.093,3.259,1.625
		c1.42,0.717,2.856,1.408,4.242,2.187c0.383,0.215,0.825,0.673,0.88,1.07C26.742,54.131,27.355,59.039,28.023,64.242z"/>
	<path fill="#FFFFFF" d="M66.35,23.692c-5.13,1.943-9.946,3.777-14.775,5.576c-0.362,0.135-0.862,0.131-1.224-0.005
		c-2.71-1.018-5.402-2.084-8.098-3.14c-0.126-0.049-0.23-0.152-0.488-0.327c0.419-0.178,0.727-0.312,1.039-0.44
		c3.526-1.45,7.062-2.877,10.576-4.357c2.251-0.948,4.429-0.936,6.659,0.101c1.629,0.758,3.333,1.356,5.002,2.028
		C65.386,23.268,65.726,23.423,66.35,23.692z"/>
	<path fill="#FFFFFF" d="M20.227,60.7c2.259,1.387,4.498,2.666,6.629,4.104c1.422,0.959,1.787,2.552,1.977,4.184
		c0.399,3.443,0.845,6.882,1.256,10.324c0.05,0.416,0.007,0.843,0.007,1.443c-0.403-0.312-0.725-0.555-1.039-0.807
		c-1.435-1.153-2.832-2.358-4.312-3.449c-1.688-1.245-2.703-2.8-2.978-4.919c-0.447-3.437-1.02-6.857-1.536-10.286
		C20.206,61.129,20.227,60.957,20.227,60.7z"/>
	<path fill="#FFFFFF" d="M15.955,42.153c-1.532-0.773-2.821-1.416-4.102-2.072c-3.736-1.913-3.126-1.088-3.882-5.092
		c-0.669-3.543-1.31-7.091-1.96-10.638c-0.024-0.132-0.003-0.272-0.003-0.514c0.286,0.079,0.517,0.107,0.716,0.203
		c2.103,1.011,4.209,2.015,6.289,3.071c0.331,0.168,0.58,0.559,0.78,0.898c0.136,0.229,0.129,0.546,0.171,0.825
		C14.613,33.164,15.259,37.494,15.955,42.153z"/>
	<path fill="#FFFFFF" d="M16.283,26.146c1.585-0.55,3.012-1.026,4.424-1.542c1.493-0.545,2.939-1.254,4.467-1.657
		c1.337-0.353,2.881-0.813,4.119-0.465c3.002,0.844,5.88,2.131,9.122,3.357c-2.47,1.004-4.621,1.884-6.776,2.751
		c-1.573,0.633-3.135,1.303-4.741,1.842c-0.548,0.184-1.298,0.213-1.809-0.016c-2.772-1.243-5.499-2.588-8.24-3.902
		C16.706,26.445,16.579,26.34,16.283,26.146z"/>
	<path fill="#FFFFFF" d="M19.181,10.876c2.994-0.52,5.668-0.989,8.343-1.448c2.019-0.346,4.044-0.661,6.06-1.026
		c0.954-0.172,1.762-0.058,2.569,0.574c1.608,1.26,3.294,2.421,5.145,3.765c-2.073,0.482-3.937,0.922-5.803,1.349
		c-2.822,0.646-5.642,1.304-8.474,1.906c-0.443,0.094-1.066,0.084-1.398-0.161C23.521,14.289,21.48,12.662,19.181,10.876z"/>
	<path fill="#FFFFFF" d="M18.481,58.267c-2.357-1.576-4.561-3.021-6.722-4.526c-0.301-0.21-0.492-0.7-0.568-1.092
		c-0.769-3.987-1.504-7.981-2.242-11.974c-0.03-0.161,0.016-0.336,0.035-0.65c0.398,0.172,0.711,0.289,1.008,0.438
		c1.673,0.839,3.313,1.753,5.025,2.504c0.974,0.427,1.345,1.061,1.494,2.059c0.605,4.052,1.277,8.094,1.917,12.141
		C18.471,57.437,18.457,57.717,18.481,58.267z"/>
	<path fill="#FFFFFF" d="M53.347,15.842c-1.139,0.76-2.158,1.444-3.182,2.121c-2.269,1.502-4.517,3.037-6.829,4.47
		c-0.5,0.31-1.274,0.453-1.845,0.326c-3.194-0.712-6.363-1.531-9.799-2.377c1.007-0.565,1.796-1.008,2.584-1.451
		c2.155-1.211,4.316-2.412,6.462-3.639c1.183-0.676,2.445-0.915,3.777-0.746c2.733,0.345,5.463,0.721,8.193,1.091
		C52.872,15.66,53.028,15.738,53.347,15.842z"/>
	<path fill="#FFFFFF" d="M27.495,31.586c0.394-0.2,0.627-0.341,0.876-0.443c3.173-1.299,6.358-2.569,9.518-3.898
		c1.463-0.615,2.856-0.599,4.31,0.025c2.238,0.96,4.507,1.85,6.937,2.841c-0.659,0.278-1.172,0.517-1.701,0.716
		c-3.607,1.354-7.221,2.687-10.822,4.056c-0.886,0.337-1.675,0.318-2.539-0.113c-1.866-0.931-3.775-1.775-5.663-2.662
		C28.139,31.981,27.889,31.812,27.495,31.586z"/>
	<path fill="#FFFFFF" d="M11.759,55.363c2.333,1.459,4.491,2.793,6.626,4.165c0.233,0.15,0.429,0.496,0.475,0.778
		c0.667,4.117,1.306,8.239,1.948,12.361c0.016,0.101-0.014,0.208-0.036,0.478c-0.34-0.269-0.602-0.476-0.864-0.683
		c-1.052-0.835-2.055-1.744-3.168-2.49c-2.134-1.431-3.343-3.359-3.694-5.91c-0.362-2.624-0.855-5.23-1.283-7.845
		C11.73,56.015,11.759,55.803,11.759,55.363z"/>
	<path fill="#FFFFFF" d="M40.28,4.376c2.99-1.072,5.802-2.094,8.63-3.073c0.288-0.1,0.769-0.062,0.986,0.12
		c1.885,1.586,3.73,3.22,5.749,4.98c-2.359,0.758-4.555,1.318-6.629,2.174c-1.805,0.745-3.159,0.517-4.555-0.847
		C43.232,6.531,41.778,5.562,40.28,4.376z"/>
	<path fill="#FFFFFF" d="M7.781,22.174c0.999-0.317,1.8-0.561,2.593-0.826c1.876-0.626,3.769-1.207,5.616-1.91
		c2.392-0.91,4.693-0.821,6.98,0.311c1.034,0.512,2.1,0.96,3.329,1.518c-0.43,0.199-0.691,0.344-0.968,0.444
		c-2.855,1.04-5.72,2.055-8.567,3.114c-1.449,0.539-2.802,0.491-4.18-0.261C11.08,23.745,9.517,23.032,7.781,22.174z"/>
</g>
</svg>
