<?xml version="1.0" encoding="utf-8"?>
<!-- Generator: Adobe Illustrator 17.0.0, SVG Export Plug-In . SVG Version: 6.00 Build 0)  -->
<!DOCTYPE svg PUBLIC "-//W3C//DTD SVG 1.1//EN" "http://www.w3.org/Graphics/SVG/1.1/DTD/svg11.dtd">
<svg version="1.1" id="Layer_1" xmlns="http://www.w3.org/2000/svg" xmlns:xlink="http://www.w3.org/1999/xlink" x="0px" y="0px"
	 width="93.75px" height="93.75px" viewBox="0 0 93.75 93.75" enable-background="new 0 0 93.75 93.75" xml:space="preserve">
<path fill="#FFFFFF" d="M94.5,44.25c0,2,0,4,0,6c-0.276,1.329-0.617,2.649-0.82,3.989c-3.145,20.77-20.105,37.155-40.83,39.425
	C31.453,96.008,11.385,83.901,3.808,63.97C2.574,60.728,1.759,57.328,0.75,54c0-4.5,0-9,0-13.5c0.467-1.531,0.979-3.05,1.395-4.595
	C6.258,20.64,15.728,10.055,30.24,3.999c3.298-1.376,6.834-2.181,10.26-3.249c4.5,0,9,0,13.5,0c1.307,0.371,2.61,0.756,3.922,1.112
	c19.543,5.3,31.432,17.832,35.597,37.664C93.849,41.1,94.173,42.675,94.5,44.25z M17.809,25.428
	c9.858,18.982,19.298,37.157,29.099,56.029c10.235-19.046,20.01-37.237,30.116-56.043c-2.062,0-3.312,0.171-4.499-0.031
	c-4.204-0.713-6.415,1.088-8.266,4.909c-4.682,9.666-9.884,19.079-14.884,28.591c-0.73,1.389-1.49,2.761-2.467,4.567
	c-0.792-1.375-1.327-2.196-1.76-3.069c-5.275-10.635-10.489-21.3-15.861-31.885c-0.631-1.244-1.989-2.692-3.227-2.933
	C23.67,25.099,21.126,25.428,17.809,25.428z M52.714,38.061c-0.054-3.154-2.599-5.448-5.918-5.334
	c-3.083,0.106-5.508,2.469-5.54,5.401c-0.033,3.033,2.583,5.534,5.802,5.546C50.289,43.686,52.768,41.227,52.714,38.061z"/>
</svg>
